<svg width="129" height="130" viewBox="0 0 129 130" fill="none" xmlns="http://www.w3.org/2000/svg">
<g clip-path="url(#clip0)">
<path d="M48.172 119.143L7.26399 78.2286C0.167991 71.1316 0.179991 58.5676 7.26799 51.4806L48.174 10.5786C55.563 3.19661 67.537 3.1966 74.922 10.5806C82.299 17.9716 82.305 29.9386 74.918 37.3256L66.297 45.9426H107.758C118.203 45.9426 126.67 54.4116 126.67 64.8556C126.67 75.3016 118.203 83.7646 107.758 83.7646L66.289 83.7646L74.922 92.3986C78.61 96.0946 80.457 100.933 80.457 105.772C80.457 110.607 78.609 115.452 74.918 119.144C67.53 126.527 55.561 126.527 48.172 119.143Z" fill="white"/>
<path d="M1.95899 65.0996C1.89999 60.1026 3.66399 55.0846 7.26799 51.4816L48.174 10.5796C55.563 3.19761 67.537 3.19761 74.922 10.5816C82.299 17.9726 82.305 29.9396 74.918 37.3266L66.297 45.9436H107.758C118.203 45.9436 126.67 54.4126 126.67 64.8566C126.67 64.9386 126.658 65.0176 126.658 65.0996L1.95899 65.0996Z" fill="#E9F1F4"/>
<path d="M74.922 92.3996C78.61 96.0956 80.457 100.934 80.457 105.773C80.457 109.027 79.6 112.284 77.922 115.192L40.963 78.2286C33.871 71.1316 33.879 58.5676 40.969 51.4806L77.922 14.5316C82.084 21.7616 81.098 31.1486 74.918 37.3256L66.297 45.9426L99.996 45.9426H107.758C118.203 45.9426 126.67 54.4116 126.67 64.8556C126.67 75.3016 118.203 83.7646 107.758 83.7646H99.988L66.289 83.7646L74.922 92.3996Z" fill="#D8E5EA"/>
<path d="M35.649 64.8616L126.67 64.8616C126.668 75.3056 118.201 83.7656 107.758 83.7656H99.988L66.289 83.7656L74.922 92.3996C78.61 96.0956 80.457 100.934 80.457 105.773C80.457 109.027 79.6 112.284 77.922 115.192L40.963 78.2286C37.42 74.6836 35.649 69.7716 35.649 64.8616Z" fill="#E9F1F4"/>
<path d="M128.17 64.8566C128.17 76.1096 119.013 85.2656 107.758 85.2656L69.91 85.2656L75.982 91.3396C79.836 95.2016 81.957 100.327 81.957 105.774C81.957 111.225 79.834 116.351 75.978 120.207C68.018 128.159 55.069 128.158 47.111 120.205L6.20299 79.2896C2.54499 75.6306 0.446991 70.3716 0.446991 64.8596C0.446991 64.8566 0.446991 64.8536 0.446991 64.8506C0.448991 59.3376 2.54899 54.0786 6.20699 50.4206L47.113 9.51861C55.075 1.56361 68.026 1.56461 75.982 9.52061C83.933 17.4856 83.929 30.4346 75.978 38.3866L69.918 44.4436H107.757C119.013 44.4436 128.17 53.6006 128.17 64.8566ZM64.789 83.7656C64.789 83.5726 64.826 83.3776 64.903 83.1916C65.135 82.6306 65.682 82.2656 66.289 82.2656L107.758 82.2656C117.359 82.2656 125.17 74.4556 125.17 64.8566C125.17 55.2546 117.358 47.4436 107.758 47.4436H66.297C65.691 47.4436 65.144 47.0776 64.911 46.5176C64.677 45.9566 64.808 45.3116 65.236 44.8826L73.857 36.2656C80.639 29.4826 80.642 18.4356 73.86 11.6406C67.074 4.85461 56.026 4.85361 49.234 11.6396L8.32799 52.5416C5.22799 55.6416 3.44899 60.1286 3.44699 64.8526C3.44699 64.8546 3.44699 64.8576 3.44699 64.8596C3.44699 69.5826 5.22399 74.0676 8.32399 77.1686L49.233 118.082C56.022 124.867 67.069 124.868 73.858 118.085C77.146 114.796 78.958 110.424 78.958 105.774C78.958 101.128 77.147 96.7536 73.861 93.4596L65.229 84.8266C64.942 84.5396 64.789 84.1556 64.789 83.7656Z" fill="#33363A"/>
<path d="M67.797 45.8366C67.797 46.2206 67.651 46.6046 67.358 46.8976L58.269 55.9926C57.683 56.5786 56.733 56.5786 56.147 55.9926C55.561 55.4066 55.562 54.4566 56.147 53.8706L65.237 44.7756C65.822 44.1896 66.772 44.1896 67.358 44.7756C67.651 45.0686 67.797 45.4536 67.797 45.8366Z" fill="#33363A"/>
<path d="M67.797 83.8876C67.797 84.2716 67.651 84.6556 67.358 84.9486C66.772 85.5336 65.822 85.5336 65.237 84.9486L56.147 75.8556C55.562 75.2696 55.562 74.3196 56.147 73.7336C56.733 73.1486 57.683 73.1486 58.269 73.7336L67.358 82.8266C67.651 83.1196 67.797 83.5036 67.797 83.8876Z" fill="#33363A"/>
<path d="M51.506 47.4376C61.131 47.4376 68.932 55.2396 68.932 64.8626C68.932 74.4846 61.131 82.2866 51.506 82.2866C41.885 82.2866 34.084 74.4856 34.084 64.8626C34.084 55.2396 41.885 47.4376 51.506 47.4376Z" fill="#FF8F8F"/>
<path d="M51.506 47.4376C58.879 47.4376 64.854 55.2396 64.854 64.8626C64.854 74.4846 58.879 82.2866 51.506 82.2866C44.139 82.2866 38.16 74.4856 38.16 64.8626C38.16 55.2396 44.139 47.4376 51.506 47.4376Z" fill="#FF1A1A"/>
<path d="M51.506 82.2866C61.131 82.2866 68.932 74.4856 68.932 64.8626C68.932 55.2396 61.131 47.4376 51.506 47.4376L51.506 82.2866Z" fill="white"/>
<path d="M64.854 64.8626C64.854 55.2396 58.879 47.4376 51.506 47.4376L51.506 82.2866C58.879 82.2866 64.854 74.4846 64.854 64.8626Z" fill="#D8E5EA"/>
<path d="M32.584 64.8626C32.584 75.2976 41.072 83.7866 51.506 83.7866C61.942 83.7866 70.432 75.2976 70.432 64.8626C70.432 54.4276 61.942 45.9376 51.506 45.9376C41.072 45.9376 32.584 54.4276 32.584 64.8626ZM35.584 64.8626C35.584 56.5886 41.928 49.7726 50.006 49.0136L50.006 80.7106C41.928 79.9506 35.584 73.1366 35.584 64.8626ZM67.432 64.8626C67.432 73.1366 61.086 79.9516 53.006 80.7106L53.006 49.0136C61.086 49.7726 67.432 56.5876 67.432 64.8626Z" fill="#33363A"/>
<path d="M59.264 64.8626C59.264 61.6809 56.6847 59.1016 53.503 59.1016C50.3213 59.1016 47.742 61.6809 47.742 64.8626C47.742 68.0443 50.3213 70.6236 53.503 70.6236C56.6847 70.6236 59.264 68.0443 59.264 64.8626Z" fill="#A7BBC1"/>
<path d="M57.306 64.8626C57.306 61.6809 54.7267 59.1016 51.545 59.1016C48.3633 59.1016 45.784 61.6809 45.784 64.8626C45.784 68.0443 48.3633 70.6236 51.545 70.6236C54.7267 70.6236 57.306 68.0443 57.306 64.8626Z" fill="white"/>
<path d="M55.619 68.9356C53.369 71.1856 49.719 71.1856 47.471 68.9356C45.221 66.6846 45.221 63.0376 47.471 60.7886" fill="#D8E5EA"/>
<path d="M58.807 64.8616C58.807 66.8006 58.052 68.6246 56.681 69.9966C55.309 71.3686 53.485 72.1226 51.545 72.1226C49.605 72.1226 47.781 71.3676 46.41 69.9966C45.039 68.6246 44.284 66.8006 44.284 64.8616C44.284 62.9226 45.039 61.0996 46.41 59.7286C47.781 58.3566 49.604 57.6006 51.545 57.6006C53.485 57.6006 55.309 58.3566 56.68 59.7276C58.051 61.0986 58.807 62.9216 58.807 64.8616ZM47.283 64.8616C47.283 65.9996 47.726 67.0696 48.532 67.8756C49.336 68.6806 50.406 69.1236 51.545 69.1236C52.684 69.1236 53.754 68.6806 54.559 67.8756C55.364 67.0706 55.807 66.0006 55.807 64.8616C55.807 63.7226 55.364 62.6536 54.559 61.8496C53.754 61.0436 52.684 60.6006 51.545 60.6006C50.406 60.6006 49.337 61.0436 48.532 61.8486C48.532 61.8486 48.532 61.8486 48.532 61.8496C47.727 62.6536 47.283 63.7236 47.283 64.8616Z" fill="#33363A"/>
<path d="M88.821 60.1056C88.821 60.4896 88.675 60.8736 88.382 61.1666L84.686 64.8616L88.382 68.5566C88.968 69.1426 88.968 70.0926 88.382 70.6786C87.797 71.2646 86.847 71.2646 86.261 70.6786L81.503 65.9226C80.94 65.3596 80.94 64.3636 81.503 63.8006L86.261 59.0446C86.847 58.4596 87.797 58.4596 88.382 59.0446C88.674 59.3386 88.821 59.7226 88.821 60.1056Z" fill="#33363A"/>
<path d="M94.799 64.8626C94.799 65.6916 94.127 66.3626 93.299 66.3626H82.563C81.735 66.3626 81.063 65.6916 81.063 64.8626C81.063 64.0336 81.735 63.3626 82.563 63.3626H93.299C94.127 63.3626 94.799 64.0336 94.799 64.8626Z" fill="#33363A"/>
<path d="M99.309 64.8616C99.309 65.2616 99.149 65.6416 98.869 65.9216C98.59 66.2016 98.199 66.3616 97.809 66.3616C97.409 66.3616 97.029 66.2016 96.748 65.9216C96.188 65.3616 96.188 64.3616 96.748 63.8016C97.028 63.5216 97.408 63.3616 97.809 63.3616C98.199 63.3616 98.589 63.5216 98.869 63.8016C99.149 64.0816 99.309 64.4726 99.309 64.8616Z" fill="#33363A"/>
<path d="M103.809 64.8616C103.809 65.2616 103.649 65.6416 103.369 65.9216C103.09 66.2016 102.699 66.3616 102.309 66.3616C101.909 66.3616 101.529 66.2016 101.248 65.9216C100.688 65.3616 100.688 64.3616 101.248 63.8016C101.528 63.5216 101.908 63.3616 102.309 63.3616C102.699 63.3616 103.089 63.5216 103.369 63.8016C103.649 64.0816 103.809 64.4726 103.809 64.8616Z" fill="#33363A"/>
<path d="M108.309 64.8616C108.309 65.2516 108.149 65.6416 107.869 65.9216C107.59 66.2016 107.209 66.3616 106.809 66.3616C106.409 66.3616 106.029 66.2016 105.748 65.9216C105.188 65.3616 105.188 64.3516 105.748 63.8016C106.028 63.5216 106.408 63.3616 106.809 63.3616C107.199 63.3616 107.589 63.5216 107.869 63.8016C108.149 64.0816 108.309 64.4616 108.309 64.8616Z" fill="#33363A"/>
</g>
<defs>
<clipPath id="clip0">
<rect width="128.617" height="127.723" fill="white" transform="translate(0.446991 129.17) rotate(-90)"/>
</clipPath>
</defs>
</svg>
